<svg xmlns="http://www.w3.org/2000/svg" xmlns:xlink="http://www.w3.org/1999/xlink" viewBox="0 0 253.77 42.85"><defs><style>.cls-1{fill:#55585d;}.cls-2{fill:#00d258;}.cls-3{fill:url(#Final_Gradient_09-13);}.cls-4{fill:#00aaf4;}</style><linearGradient id="Final_Gradient_09-13" x1="47.31" y1="6.28" x2="77.6" y2="36.57" gradientUnits="userSpaceOnUse"><stop offset="0.12" stop-color="#00aaf4"/><stop offset="0.88" stop-color="#00d258"/></linearGradient></defs><title>Asset 1</title><g id="Layer_2" data-name="Layer 2"><g id="Layer_1-2" data-name="Layer 1"><path class="cls-1" d="M134.71,21.37a21,21,0,1,1,42,0,21,21,0,1,1-42,0Zm38.59-.06c0-10.18-7.57-18.06-17.56-18.06s-17.62,7.82-17.62,18.06,7.51,18.12,17.62,18.12S173.3,31.55,173.3,21.31Z"/><path class="cls-1" d="M215.86.24V42.47h-1.3L187.45,7.78V42.5h-3.23V.27h1.24l27.18,34.94V.24Z"/><path class="cls-1" d="M226.47.18H253v3H229.81v15h18.05v3H229.81V39.56h24v3h-27.3Z"/><path class="cls-2" d="M115.82,21.43,127.69,8a4.65,4.65,0,0,0-7-6.16L109.62,14.41,98.5,1.84a4.65,4.65,0,1,0-7,6.16l11.87,13.43L91.54,34.85a4.65,4.65,0,0,0,7,6.16l11.12-12.57L120.73,41a4.65,4.65,0,0,0,7-6.16Z"/><path class="cls-3" d="M62.46,42.85A21.43,21.43,0,1,1,83.89,21.43,21.45,21.45,0,0,1,62.46,42.85Zm0-33.8A12.38,12.38,0,1,0,74.84,21.43,12.39,12.39,0,0,0,62.46,9.05Z"/><path class="cls-4" d="M21.43,42.85A21.43,21.43,0,1,1,32.32,3a4.52,4.52,0,0,1-4.6,7.79,12.38,12.38,0,1,0,0,21.33,4.52,4.52,0,0,1,4.6,7.79A21.44,21.44,0,0,1,21.43,42.85Z"/></g></g></svg>
